<svg width="1440" height="1095" viewBox="0 0 1440 1095" fill="none" xmlns="http://www.w3.org/2000/svg">
<g filter="url(#filter0_f_191_4)">
<line x1="57" y1="159.312" x2="1370" y2="159.312" stroke="white" stroke-opacity="0.55" stroke-width="0.775266"/>
<line x1="125.388" y1="159.7" x2="125.388" y2="849.7" stroke="white" stroke-opacity="0.55" stroke-width="0.775266"/>
<line x1="220.388" y1="159.7" x2="220.388" y2="849.7" stroke="white" stroke-opacity="0.55" stroke-width="0.775266"/>
<line x1="412.388" y1="170.7" x2="412.388" y2="850.7" stroke="white" stroke-opacity="0.55" stroke-width="0.775266"/>
<line x1="506.388" y1="172.7" x2="506.388" y2="852.7" stroke="white" stroke-opacity="0.55" stroke-width="0.775266"/>
<line x1="887.388" y1="195.7" x2="887.388" y2="849.7" stroke="white" stroke-opacity="0.55" stroke-width="0.775266"/>
<line x1="790.388" y1="190.698" x2="793.388" y2="851.698" stroke="white" stroke-opacity="0.55" stroke-width="0.775266"/>
<line x1="695.388" y1="221.697" x2="699.388" y2="851.698" stroke="white" stroke-opacity="0.55" stroke-width="0.775266"/>
<line x1="600.388" y1="195.699" x2="601.388" y2="851.699" stroke="white" stroke-opacity="0.55" stroke-width="0.775266"/>
<line x1="985.388" y1="177.7" x2="985.388" y2="851.7" stroke="white" stroke-opacity="0.55" stroke-width="0.775266"/>
<line x1="1089.39" y1="167.7" x2="1089.39" y2="852.7" stroke="white" stroke-opacity="0.55" stroke-width="0.775266"/>
<line x1="1292.39" y1="159.7" x2="1292.39" y2="852.7" stroke="white" stroke-opacity="0.55" stroke-width="0.775266"/>
<line x1="1197.39" y1="159.7" x2="1197.39" y2="852.7" stroke="white" stroke-opacity="0.55" stroke-width="0.775266"/>
<line x1="57" y1="190.312" x2="1370" y2="190.312" stroke="white" stroke-opacity="0.55" stroke-width="0.775266"/>
<line x1="57" y1="221.312" x2="1370" y2="221.312" stroke="white" stroke-opacity="0.55" stroke-width="0.775266"/>
<line x1="57" y1="256.312" x2="1370" y2="256.312" stroke="white" stroke-opacity="0.55" stroke-width="0.775266"/>
<line x1="57" y1="307.312" x2="1370" y2="307.312" stroke="white" stroke-opacity="0.55" stroke-width="0.775266"/>
<line x1="57" y1="340.312" x2="1370" y2="340.312" stroke="white" stroke-opacity="0.55" stroke-width="0.775266"/>
<line x1="57" y1="373.312" x2="1370" y2="373.312" stroke="white" stroke-opacity="0.55" stroke-width="0.775266"/>
<line x1="57" y1="407.312" x2="1370" y2="407.312" stroke="white" stroke-opacity="0.55" stroke-width="0.775266"/>
<line x1="57" y1="441.312" x2="1370" y2="441.312" stroke="white" stroke-opacity="0.55" stroke-width="0.775266"/>
<line x1="57" y1="472.312" x2="1370" y2="472.312" stroke="white" stroke-opacity="0.55" stroke-width="0.775266"/>
<line x1="57" y1="507.312" x2="1370" y2="507.312" stroke="white" stroke-opacity="0.55" stroke-width="0.775266"/>
<line x1="57" y1="539.312" x2="1370" y2="539.312" stroke="white" stroke-opacity="0.55" stroke-width="0.775266"/>
<line x1="57" y1="575.312" x2="1370" y2="575.312" stroke="white" stroke-opacity="0.55" stroke-width="0.775266"/>
<line x1="57" y1="609.312" x2="1370" y2="609.312" stroke="white" stroke-opacity="0.55" stroke-width="0.775266"/>
<line x1="57" y1="642.312" x2="1370" y2="642.312" stroke="white" stroke-opacity="0.55" stroke-width="0.775266"/>
<line x1="57" y1="676.312" x2="1370" y2="676.312" stroke="white" stroke-opacity="0.55" stroke-width="0.775266"/>
<line x1="57" y1="710.312" x2="1370" y2="710.312" stroke="white" stroke-opacity="0.55" stroke-width="0.775266"/>
<line x1="57" y1="741.312" x2="1370" y2="741.312" stroke="white" stroke-opacity="0.55" stroke-width="0.775266"/>
<line x1="57" y1="777.312" x2="1370" y2="777.312" stroke="white" stroke-opacity="0.55" stroke-width="0.775266"/>
<line x1="57" y1="809.312" x2="1370" y2="809.312" stroke="white" stroke-opacity="0.55" stroke-width="0.775266"/>
<line x1="57" y1="844.312" x2="1370" y2="844.312" stroke="white" stroke-opacity="0.55" stroke-width="0.775266"/>
</g>
<g filter="url(#filter1_f_191_4)">
<path d="M-101 492.2C-101 715.599 -38.9082 1011.7 23.5 1011.7C85.9082 1011.7 125 715.599 125 492.2C125 268.801 85.9082 82.7 23.5 82.7C-38.9082 82.7 -101 268.801 -101 492.2Z" fill="black"/>
</g>
<g filter="url(#filter2_f_191_4)">
<path d="M1542 492.2C1542 715.599 1461.91 852.2 1399.5 852.2C1337.09 852.2 1316 715.599 1316 492.2C1316 268.801 1337.09 160.7 1399.5 160.7C1461.91 160.7 1542 268.801 1542 492.2Z" fill="black"/>
</g>
<defs>
<filter id="filter0_f_191_4" x="49.3" y="151.225" width="1328.4" height="709.175" filterUnits="userSpaceOnUse" color-interpolation-filters="sRGB">
<feFlood flood-opacity="0" result="BackgroundImageFix"/>
<feBlend mode="normal" in="SourceGraphic" in2="BackgroundImageFix" result="shape"/>
<feGaussianBlur stdDeviation="3.85" result="effect1_foregroundBlur_191_4"/>
</filter>
<filter id="filter1_f_191_4" x="-183.7" y="-4.57764e-05" width="391.4" height="1094.4" filterUnits="userSpaceOnUse" color-interpolation-filters="sRGB">
<feFlood flood-opacity="0" result="BackgroundImageFix"/>
<feBlend mode="normal" in="SourceGraphic" in2="BackgroundImageFix" result="shape"/>
<feGaussianBlur stdDeviation="41.35" result="effect1_foregroundBlur_191_4"/>
</filter>
<filter id="filter2_f_191_4" x="1233.3" y="78" width="391.4" height="856.9" filterUnits="userSpaceOnUse" color-interpolation-filters="sRGB">
<feFlood flood-opacity="0" result="BackgroundImageFix"/>
<feBlend mode="normal" in="SourceGraphic" in2="BackgroundImageFix" result="shape"/>
<feGaussianBlur stdDeviation="41.35" result="effect1_foregroundBlur_191_4"/>
</filter>
</defs>
</svg>
