<svg width="250" height="118" viewBox="0 0 250 118" fill="none" xmlns="http://www.w3.org/2000/svg">
<path d="M49.9497 8.65438L49.987 8.98151C51.0833 18.6121 53.2667 25.5559 56.9471 30.4739C60.6146 35.3746 65.8121 38.3201 73.0644 39.8688C84.3048 42.2692 95.9743 36.7603 102.716 25.5584L102.908 25.2389L103.269 25.3315C112.256 27.6354 121.021 30.2563 129.764 32.8707L130.271 33.0223L130.091 33.5199C121.049 58.4589 91.5273 73.6665 65.4244 67.2557C34.6856 59.7063 17.0641 30.1641 23.0216 1.17127L23.1317 0.635431L49.9497 8.65438Z" stroke="white"/>
<path d="M249.033 67.9492L248.908 68.4176C246.415 77.7831 239.611 86.4485 230.694 92.9004C221.773 99.3547 210.697 103.625 199.601 104.166C174.849 105.374 153.105 90.6982 143.742 66.2891L143.738 66.2778L143.735 66.2677C140.488 56.4893 139.882 46.8541 141.884 36.7013L141.992 36.1606L169.035 44.2469L169.026 44.6274C168.853 52.1681 170.328 58.7124 173.735 63.8627C177.136 69.0047 182.495 72.8062 190.19 74.811C197.255 76.6519 203.392 76.0523 208.688 73.5038C213.993 70.9511 218.499 66.421 222.252 60.3287L222.453 60.0016L249.033 67.9492Z" stroke="white"/>
<path d="M94.2534 25.8159C103.23 28.1169 111.985 30.7347 120.73 33.3496C111.778 58.0385 82.5182 73.1226 56.6533 66.7702C26.1779 59.2855 8.7163 30.0039 14.6206 1.271C23.2621 3.85493 31.887 6.43387 40.599 9.03891C42.8001 28.3739 49.3925 37.224 64.0681 40.358C75.5472 42.8094 87.4185 37.1735 94.2534 25.8159Z" fill="#FCFCFC"/>
<path d="M135.319 66.1096C132.099 56.4132 131.5 46.8657 133.485 36.7972C142.122 39.3797 150.748 41.959 159.635 44.6165C159.286 59.834 165.582 71.2328 181.172 75.2948C195.505 79.0294 206.213 72.8856 213.787 60.5908C222.445 63.1795 230.992 65.7352 239.534 68.2895C234.622 86.7416 212.664 102.595 190.686 103.667C166.164 104.864 144.61 90.3311 135.319 66.1096Z" fill="#FCFCFC"/>
</svg>
