<svg width="1440" height="5478" viewBox="0 0 1440 5478" fill="none" xmlns="http://www.w3.org/2000/svg">
<path d="M-3.99982 0.589653C-3.99982 0.589653 141.297 198.637 264.5 229.59C445.293 275.011 571.266 182.001 751.501 229.59C895.71 267.666 931.281 323.841 1067.5 384.59C1205.04 445.928 1442 476.59 1442 476.59C1442 476.59 1712.75 820.986 1598.5 1002.09C1531 1109.09 1143 1194.59 1143 1194.59C1143 1194.59 640.488 1289.76 361.001 1447.59C196.882 1540.27 -28.4998 1732.59 -28.4998 1732.59C-28.4998 1732.59 -223.77 1911.19 -212.5 2056.09C-195.024 2280.77 309.501 2302.09 309.501 2302.09C309.501 2302.09 716.54 2327.68 958 2416.09C1178.02 2496.65 1481 2710.09 1481 2710.09L1901 3221.09C1901 3221.09 1294.45 3482.12 882 3553.59C460.72 3626.59 -212.5 3580.59 -212.5 3580.59C-212.5 3580.59 -487 4319.41 -433 4289.59C-230 4171.59 1383.35 4203.26 1675 4464.59C2033.68 4785.98 1927.87 4030.72 1598.5 4382.09C1369.78 4626.09 1125.06 4762.84 760.001 4839.09C414.703 4911.21 -141 4775.09 -141 4775.09L-391.5 5051.59C-391.5 5051.59 301.471 5055.31 699.5 5221.09C1020.31 5354.71 1440 5714.59 1440 5714.59" stroke="white" stroke-width="2"/>
<path d="M-3.99982 13.5897C-3.99982 13.5897 141.297 211.637 264.5 242.59C445.293 288.011 571.266 195.001 751.501 242.59C895.71 280.666 931.281 336.841 1067.5 397.59C1205.04 458.928 1442 489.59 1442 489.59C1442 489.59 1712.75 833.986 1598.5 1015.09C1531 1122.09 1143 1207.59 1143 1207.59C1143 1207.59 640.488 1302.76 361.001 1460.59C196.882 1553.27 -28.4998 1745.59 -28.4998 1745.59C-28.4998 1745.59 -223.77 1924.19 -212.5 2069.09C-195.024 2293.77 309.501 2315.09 309.501 2315.09C309.501 2315.09 716.54 2340.68 958 2429.09C1178.02 2509.65 1481 2723.09 1481 2723.09L1901 3234.09C1901 3234.09 1294.45 3495.12 882 3566.59C460.72 3639.59 -212.5 3593.59 -212.5 3593.59C-212.5 3593.59 -487 4332.41 -433 4302.59C-230 4184.59 1383.35 4216.26 1675 4477.59C2033.68 4798.98 1927.87 4043.72 1598.5 4395.09C1369.78 4639.09 1125.06 4775.84 760.001 4852.09C414.703 4924.21 -141 4788.09 -141 4788.09L-391.5 5064.59C-391.5 5064.59 301.471 5068.31 699.5 5234.09C1020.31 5367.71 1440 5727.59 1440 5727.59" stroke="white" stroke-width="9"/>
</svg>
