<svg width="23" height="23" viewBox="0 0 23 23" fill="none" xmlns="http://www.w3.org/2000/svg">
<rect x="0.5" y="0.5" width="22" height="22" rx="11" stroke="white"/>
<path d="M9.37515 19.2498C10.7781 19.2498 11.9168 18.1111 11.9168 16.7082V14.1665H9.37515C7.97216 14.1665 6.8335 15.3052 6.8335 16.7082C6.8335 18.1111 7.97216 19.2498 9.37515 19.2498Z" fill="#0ACF83"/>
<path d="M6.8335 11.6249C6.8335 10.2219 7.97216 9.08325 9.37515 9.08325H11.9168V14.1666H9.37515C7.97216 14.1666 6.8335 13.0279 6.8335 11.6249Z" fill="#A259FF"/>
<path d="M6.8335 6.54165C6.8335 5.13866 7.97216 4 9.37515 4H11.9168V9.08331H9.37515C7.97216 9.08331 6.8335 7.94465 6.8335 6.54165Z" fill="#F24E1E"/>
<path d="M11.9165 4H14.4582C15.8611 4 16.9998 5.13866 16.9998 6.54165C16.9998 7.94465 15.8611 9.08331 14.4582 9.08331H11.9165V4Z" fill="#FF7262"/>
<path d="M16.9998 11.6249C16.9998 13.0279 15.8611 14.1666 14.4582 14.1666C13.0552 14.1666 11.9165 13.0279 11.9165 11.6249C11.9165 10.2219 13.0552 9.08325 14.4582 9.08325C15.8611 9.08325 16.9998 10.2219 16.9998 11.6249Z" fill="#1ABCFE"/>
</svg>
