<svg width="416" height="156" viewBox="0 0 416 156" fill="none" xmlns="http://www.w3.org/2000/svg">
<g clip-path="url(#clip0_201_55)">
<path d="M157.733 0L76.2667 156H0L64.1333 34.6667C74.5333 15.6 98.8 0 119.6 0H157.733ZM341.467 38.1333C341.467 17.3333 358.8 0 379.6 0C400.4 0 417.733 17.3333 417.733 38.1333C417.733 58.9333 400.4 76.2667 379.6 76.2667C358.8 76.2667 341.467 58.9333 341.467 38.1333ZM171.6 0H246.133L164.667 156H90.1333L171.6 0ZM260 0H334.533L270.4 121.333C260 140.4 235.733 156 214.933 156H176.8L260 0Z" fill="white"/>
</g>
<defs>
<clipPath id="clip0_201_55">
<rect width="416" height="156" fill="white"/>
</clipPath>
</defs>
</svg>
